<svg version="1.1" id="Layer_1" xmlns="http://www.w3.org/2000/svg" xmlns:xlink="http://www.w3.org/1999/xlink" x="0px" y="0px"
	 width="100%" viewBox="0 0 500 234" enable-background="new 0 0 500 234" xml:space="preserve">
<path fill="#000000" opacity="1.000000" stroke="none" 
	d="
M297.000000,235.000000 
	C199.366425,235.000000 102.232826,234.981766 5.099343,235.080124 
	C1.892859,235.083359 0.885145,234.730835 0.892031,231.101791 
	C1.035227,155.627762 1.027220,80.153358 0.908514,4.679258 
	C0.903330,1.383560 1.864926,0.934030 4.818360,0.935340 
	C168.929092,1.008129 333.039856,1.007193 497.150604,0.941366 
	C500.031342,0.940211 501.102173,1.275809 501.096588,4.648232 
	C500.970734,80.288925 500.972168,155.929916 501.097198,231.570602 
	C501.102448,234.749176 500.218628,235.069366 497.431519,235.065826 
	C430.787781,234.981201 364.143860,235.000000 297.000000,235.000000 
z"/>
<path fill="#060202" opacity="1.000000" stroke="none" 
	d="
M83.005310,167.883301 
	C82.732269,168.059647 82.460915,168.049042 82.325607,168.037766 
	C80.220047,166.939178 80.525352,165.030045 80.511185,163.266968 
	C80.478447,159.192398 80.501366,155.117432 80.500076,150.556915 
	C80.500664,141.705292 80.500549,133.339401 80.500237,124.492310 
	C80.500603,110.261314 80.500526,96.511513 80.500305,82.300400 
	C80.521935,80.056046 80.442924,78.270607 80.735718,76.079697 
	C80.981262,75.133003 81.134575,74.602715 81.423164,73.698235 
	C83.208382,70.990860 85.137039,72.278870 86.725502,73.206810 
	C90.257431,75.270065 93.978943,76.994713 97.732948,79.386215 
	C101.008553,81.242401 103.681664,83.450928 107.346024,84.539566 
	C107.890060,84.701805 108.100128,84.790047 108.593262,85.067017 
	C109.777992,86.237465 110.755104,87.118034 112.320938,87.751457 
	C113.771194,88.890091 115.015556,89.738205 116.758904,90.368065 
	C117.272629,90.505219 117.480896,90.548088 117.987022,90.702042 
	C118.655762,91.002800 119.013840,91.213928 119.606689,91.622070 
	C120.171661,92.036224 120.466774,92.301147 120.971298,92.763573 
	C121.532379,93.144417 121.878906,93.316521 122.534943,93.524521 
	C123.019127,93.665504 123.209602,93.739281 123.670731,93.961288 
	C124.591568,94.646416 125.352486,94.966881 126.452805,95.349808 
	C135.670044,100.277863 143.666275,106.609642 153.114929,111.183022 
	C153.646042,111.407318 153.862961,111.487244 154.406570,111.688751 
	C155.141525,112.031319 155.522659,112.291458 156.142639,112.808220 
	C158.977600,114.857658 161.854233,116.282745 164.267853,118.878563 
	C164.894287,119.008240 165.220657,118.995918 165.792633,119.006508 
	C166.551178,121.413490 164.686981,122.077393 163.133743,122.917221 
	C158.531631,125.405533 154.037277,128.079788 149.230835,130.919678 
	C140.280563,135.755066 131.813400,140.722610 123.158173,146.032608 
	C122.760132,146.440765 122.615494,146.620026 122.221573,147.041626 
	C121.788918,147.426971 121.605553,147.569946 121.125359,147.893341 
	C120.617790,148.163895 120.407051,148.254059 119.865189,148.416794 
	C117.573227,148.905380 115.862450,149.882767 113.915100,151.086746 
	C113.520905,151.444443 113.373245,151.597961 112.978241,151.950363 
	C112.387787,152.384964 112.039146,152.612213 111.437263,153.015320 
	C111.024902,153.325623 110.859818,153.450897 110.445534,153.765594 
	C109.854324,154.211884 109.491440,154.435318 108.835144,154.812317 
	C103.266869,158.595718 97.203369,160.759338 91.427979,164.176117 
	C89.457184,164.951813 88.214294,166.415344 86.075050,166.825714 
	C84.883560,167.028473 84.068199,167.327652 83.005310,167.883301 
z"/>
<path fill="#F6A800" opacity="1.000000" stroke="none" 
	d="
M306.627930,111.999153 
	C303.891602,112.395599 303.136627,111.228409 302.709320,109.039886 
	C301.832672,104.550034 300.599762,100.129768 298.518860,95.542709 
	C297.307953,99.013496 296.069946,102.475128 294.891846,105.957031 
	C292.616882,112.680740 292.630920,112.685486 284.666046,111.496025 
	C288.140411,101.221764 291.666626,91.032219 295.003082,80.780907 
	C295.989563,77.750000 298.264252,78.652405 300.291626,78.414299 
	C302.485199,78.156685 303.171234,79.419090 303.580811,81.226761 
	C304.850525,86.830589 306.177734,92.421410 307.784973,99.313805 
	C311.933899,92.674355 315.442719,87.131813 318.866730,81.537384 
	C319.946594,79.772980 320.938843,78.458549 323.406128,78.334801 
	C326.987213,78.155182 328.443665,78.939590 328.122925,82.953499 
	C327.433258,91.583641 327.101776,100.252243 326.943787,108.910934 
	C326.863464,113.311745 323.857269,111.687035 321.703583,112.018867 
	C318.795807,112.466888 318.535553,110.944092 318.665131,108.511543 
	C318.890686,104.277489 318.727844,100.022743 318.727844,95.411850 
	C313.982208,100.583885 312.149872,107.472778 306.627930,111.999153 
z"/>
<path fill="#CB1C4B" opacity="1.000000" stroke="none" 
	d="
M354.428131,146.223633 
	C351.592987,156.091858 345.106140,161.385849 335.230560,161.912125 
	C330.757599,162.150482 326.255585,161.837402 321.781555,162.064865 
	C318.834808,162.214706 318.500732,160.975266 318.990997,158.524811 
	C320.943726,148.764191 322.815186,138.987152 324.671265,129.207565 
	C325.004700,127.450737 325.374207,126.021271 327.676422,126.134277 
	C331.817047,126.337524 336.024170,125.981812 340.099030,126.576050 
	C350.913116,128.153061 355.787292,134.865967 354.428131,146.223633 
z"/>
<path fill="#A1163B" opacity="1.000000" stroke="none" 
	d="
M84.792908,166.331696 
	C86.500664,165.139816 87.982613,164.225586 89.779663,163.230835 
	C94.428383,162.422195 98.099403,160.005539 101.927254,158.153946 
	C116.576019,151.068192 131.349548,144.276505 146.444489,138.205841 
	C149.695236,136.898499 151.524277,135.219940 150.429321,131.175568 
	C151.068771,129.226730 152.573578,128.782806 153.846863,128.065933 
	C160.155594,124.514008 166.515991,121.054451 172.785828,117.432510 
	C174.504654,116.439583 176.292648,115.523880 178.706909,116.522888 
	C178.327744,120.798256 176.605774,124.499535 174.931091,128.600220 
	C171.694885,132.545486 167.331894,133.892929 163.104843,135.330673 
	C159.446625,136.574921 157.239090,138.536819 156.672852,142.619766 
	C156.073883,146.938843 154.027390,150.804703 151.051437,154.554825 
	C150.311752,155.487976 149.661606,155.921753 148.534393,156.308411 
	C138.843597,158.822556 129.387329,161.005844 120.034027,162.772797 
	C110.041351,164.660522 100.055244,167.705765 89.332024,167.746216 
	C87.928352,167.914856 86.877914,167.931244 85.435097,167.906708 
	C84.666550,167.529343 84.518066,167.106735 84.792908,166.331696 
z"/>
<path fill="#CA1C4B" opacity="1.000000" stroke="none" 
	d="
M214.661377,155.384674 
	C216.374435,146.489059 218.163544,138.022446 219.543808,129.489716 
	C220.391891,124.246986 224.201797,126.239967 226.873795,126.284058 
	C230.606842,126.345665 228.196274,129.099106 228.283890,130.738312 
	C228.292496,130.899216 228.221527,131.063873 228.190948,131.227432 
	C226.601196,139.734314 228.869720,141.770340 237.514160,139.783081 
	C239.135284,139.410400 239.683655,138.508972 239.932678,137.092361 
	C240.364578,134.635468 240.877319,132.192032 241.270020,129.729202 
	C241.655746,127.310204 242.625229,126.175079 245.439819,126.020790 
	C249.836578,125.779785 251.241287,126.727135 250.133667,131.451553 
	C248.048004,140.347717 246.638199,149.401367 244.880737,158.376480 
	C244.613663,159.740387 244.823074,161.744766 242.819031,161.886566 
	C240.533783,162.048279 238.201111,161.856186 235.918945,161.575073 
	C235.113113,161.475800 235.554214,160.458237 235.628311,159.849319 
	C235.748825,158.858887 235.920395,157.873901 236.094360,156.890839 
	C237.764221,147.453949 237.768707,147.559204 228.383560,147.828598 
	C225.917557,147.899384 224.744675,148.647079 224.400482,151.055954 
	C224.024445,153.687775 223.340424,156.276947 222.996735,158.911606 
	C222.711853,161.095398 221.817795,161.973831 219.481583,162.076981 
	C213.262222,162.351608 213.267883,162.479904 214.661377,155.384674 
z"/>
<path fill="#CA1C4B" opacity="1.000000" stroke="none" 
	d="
M390.428070,143.580841 
	C389.360138,149.058319 388.399536,154.120422 387.446808,159.184021 
	C386.469269,164.379440 382.380798,161.795792 379.826813,161.803543 
	C376.578857,161.813416 378.955719,159.157166 378.799652,157.681641 
	C378.765930,157.362457 378.889526,157.025528 378.947388,156.697952 
	C380.563141,147.553589 380.565216,147.694351 371.425903,147.818787 
	C368.407959,147.859894 367.289825,148.995377 366.996124,151.785446 
	C366.735840,154.258148 366.142517,156.695587 365.700958,159.149460 
	C365.378510,160.941422 364.700134,161.951614 362.501801,162.085190 
	C356.406616,162.455551 356.027191,162.182053 357.176178,156.154556 
	C358.825531,147.502365 360.476044,138.850342 362.153534,130.203568 
	C362.830750,126.712830 368.024017,124.469841 370.894623,126.361023 
	C371.778717,126.943459 371.651154,127.711441 371.499756,128.533768 
	C371.319153,129.514755 371.137970,130.495651 370.964355,131.477890 
	C369.453735,140.023865 369.454651,139.860565 378.127258,139.883560 
	C381.320831,139.892029 382.654053,138.777145 382.978638,135.752655 
	C383.226196,133.445679 383.806946,131.175888 384.196045,128.882202 
	C384.524750,126.944244 385.544281,126.217422 387.583740,126.089088 
	C393.396881,125.723328 393.859100,126.136803 392.736023,131.911087 
	C392.006226,135.663284 391.271423,139.414490 390.428070,143.580841 
z"/>
<path fill="#01C499" opacity="1.000000" stroke="none" 
	d="
M81.578903,74.812347 
	C81.881714,76.807098 81.923790,78.565819 81.895279,80.759567 
	C81.598976,81.696693 81.398453,82.208656 81.144409,83.139435 
	C80.622833,98.382561 78.351891,113.054726 77.139595,127.820717 
	C77.044731,128.976105 76.880363,130.128326 75.960846,131.427139 
	C76.385010,132.773026 72.703934,131.321991 75.076050,133.502075 
	C76.447098,135.950836 76.483200,138.424622 75.837036,140.525803 
	C74.402954,145.189102 75.595467,148.488129 80.015091,151.188675 
	C80.829109,160.425064 80.348709,169.284882 80.491676,178.138489 
	C80.516647,179.684998 80.223305,181.079788 78.428604,182.247299 
	C75.402084,179.520935 72.822174,176.596283 70.099640,173.370636 
	C66.835388,168.185913 68.871819,162.976379 69.338882,157.994995 
	C69.665306,154.513611 69.561150,151.894073 66.449600,149.772629 
	C63.220573,147.571091 61.561043,143.984360 59.134384,140.550781 
	C58.385193,139.208405 58.256351,138.131180 58.425995,136.620239 
	C62.766598,123.366806 67.057068,110.518578 70.954956,97.546677 
	C73.009201,90.710289 75.843491,84.206520 78.929611,77.381332 
	C79.240471,76.486671 79.468315,75.970383 79.900002,75.253983 
	C80.422142,74.674782 80.822418,74.504166 81.578903,74.812347 
z"/>
<path fill="#CB1C4B" opacity="1.000000" stroke="none" 
	d="
M282.307678,158.391815 
	C281.491638,164.512741 277.066071,161.854111 274.435944,161.730194 
	C271.747772,161.603546 273.556000,158.951706 273.570801,157.374405 
	C273.572327,157.212799 273.653259,157.053314 273.685089,156.890472 
	C275.525360,147.468674 275.527985,147.563858 266.018311,147.834793 
	C263.370667,147.910202 262.008148,148.617233 261.864685,151.418869 
	C261.772125,153.225601 261.221497,155.008041 260.887360,156.803436 
	C259.936615,161.911499 257.723022,163.223206 252.681046,162.023331 
	C250.970001,161.616119 251.068237,160.733093 251.299103,159.524689 
	C253.261810,149.251602 255.155746,138.964615 257.223114,128.712616 
	C258.102692,124.350800 261.756927,126.422340 264.212280,126.244667 
	C267.577362,126.001152 265.838593,128.621552 265.948608,130.151703 
	C265.971863,130.474991 265.867920,130.809601 265.808044,131.136353 
	C264.212799,139.840927 266.113129,141.577438 274.978699,139.830109 
	C276.706329,139.489594 277.073975,138.517166 277.353424,137.179062 
	C277.794495,135.066879 278.231018,132.953751 278.674103,130.841995 
	C279.603363,126.413414 281.936554,125.050812 286.325195,126.178604 
	C289.308502,126.945244 287.946655,129.073990 287.670837,130.587677 
	C286.004456,139.733261 284.177368,148.849548 282.307678,158.391815 
z"/>
<path fill="#F5A700" opacity="1.000000" stroke="none" 
	d="
M220.066772,108.204468 
	C219.705307,114.148033 215.418350,111.978622 212.869339,111.853188 
	C209.002823,111.662941 212.381104,108.877312 211.860840,107.370872 
	C211.812668,107.231400 211.896744,107.044250 211.925888,106.880394 
	C213.346695,98.892181 211.276825,97.032204 203.152725,98.837082 
	C201.777374,99.142639 201.192871,99.739990 201.005585,101.083565 
	C200.707336,103.223083 200.268921,105.343452 199.874573,107.469101 
	C199.067078,111.821609 196.501389,113.211983 192.161835,112.031479 
	C190.286591,111.521362 190.844025,110.359596 191.026672,109.367630 
	C192.773087,99.882645 194.516235,90.395851 196.415359,80.940727 
	C197.307281,76.500099 200.980392,78.604042 203.389114,78.600655 
	C206.228287,78.596664 204.808258,81.008682 204.615631,82.404442 
	C204.234329,85.167488 203.601517,87.895813 203.046906,90.772148 
	C203.990295,90.886551 204.639252,91.016273 205.291626,91.036674 
	C214.579681,91.327209 214.579803,91.323639 216.594955,82.422630 
	C217.393372,78.896057 220.882706,77.183784 224.282776,78.492332 
	C226.331268,79.280708 225.286133,80.692139 225.078827,81.811783 
	C223.474472,90.477188 221.785492,99.126938 220.066772,108.204468 
z"/>
<path fill="#F5A700" opacity="1.000000" stroke="none" 
	d="
M238.633942,87.678864 
	C238.459549,89.224762 237.157410,90.900734 239.601242,90.995514 
	C242.428436,91.105164 245.264084,90.982452 248.093353,91.059700 
	C249.635269,91.101807 250.021729,90.254936 250.254150,88.962036 
	C250.695190,86.508522 251.489670,84.099464 251.722244,81.632797 
	C251.965744,79.049995 253.202377,78.591568 255.575394,78.324852 
	C260.176514,77.807701 260.800629,79.656479 259.937469,83.621010 
	C258.133850,91.905304 256.351990,100.214577 255.119324,108.595688 
	C254.318710,114.039253 250.485641,111.970924 247.915161,111.862450 
	C244.069382,111.700172 247.312836,108.923714 246.851685,107.418091 
	C246.807831,107.274895 246.890656,107.091400 246.919861,106.927544 
	C248.408157,98.574631 246.696899,97.021225 238.201004,98.835701 
	C236.840210,99.126335 236.203125,99.674973 236.012589,101.036118 
	C235.713150,103.175491 235.275162,105.295784 234.882980,107.421776 
	C234.064285,111.859909 231.667297,113.171844 227.210327,112.038177 
	C225.333939,111.560921 225.829361,110.433762 226.017426,109.414970 
	C227.768188,99.930984 229.522293,90.446854 231.397446,80.986946 
	C232.280502,76.532143 235.963043,78.496666 238.332901,78.614868 
	C241.347000,78.765205 239.650421,81.280762 239.508789,82.841278 
	C239.374008,84.326416 239.007828,85.790565 238.633942,87.678864 
z"/>
<path fill="#CB1C4B" opacity="1.000000" stroke="none" 
	d="
M399.846191,144.797012 
	C402.995483,139.276382 406.163330,134.177658 408.886597,128.851593 
	C411.024292,124.670776 414.600403,126.410446 417.659393,126.223900 
	C421.025635,126.018631 420.365509,129.137039 420.743530,130.948639 
	C422.577362,139.737198 424.266754,148.560303 425.734528,157.416367 
	C425.966370,158.815475 428.118958,161.867783 424.368378,161.869156 
	C421.870850,161.870087 417.706421,164.013153 417.352356,159.062683 
	C417.090149,155.396973 415.387329,154.859863 412.246948,154.943741 
	C407.344055,155.074707 402.679047,154.216309 400.065460,160.493042 
	C398.628113,163.944870 394.085571,161.375809 389.900116,162.153641 
	C393.454315,155.959259 396.563690,150.540085 399.846191,144.797012 
z"/>
<path fill="#CA1C4A" opacity="1.000000" stroke="none" 
	d="
M307.639893,138.467331 
	C308.713593,135.973389 308.560791,134.039429 306.141632,133.203949 
	C304.095306,132.497223 302.090607,132.921936 300.950867,135.004501 
	C298.962677,138.637543 295.646515,136.803101 292.900879,136.938263 
	C290.946014,137.034485 291.780090,135.308243 292.001160,134.322021 
	C292.988861,129.916153 297.651764,126.411057 303.213501,125.791374 
	C309.319031,125.111092 314.750763,127.283424 316.587646,131.455765 
	C318.391083,135.552124 317.496582,139.243515 314.220215,142.349762 
	C313.291260,143.230484 311.645325,143.484909 313.117950,145.723404 
	C317.211151,151.945374 314.904327,158.641403 308.111084,161.490341 
	C300.708984,164.594620 291.539032,161.851227 289.080109,155.634399 
	C288.434601,154.002335 286.700256,151.300125 289.419373,150.598373 
	C291.725861,150.003143 295.170227,148.570496 296.982544,151.818649 
	C298.044098,153.721176 299.027557,155.189926 301.356659,155.261688 
	C304.039734,155.344330 306.036377,154.272690 306.410339,151.521667 
	C306.762390,148.932266 305.146118,147.618866 302.687744,147.101410 
	C301.365082,146.823013 298.808350,147.951080 299.556061,144.832458 
	C300.058472,142.736877 299.581360,139.823669 303.265442,140.149429 
	C304.777985,140.283173 306.270508,140.030960 307.639893,138.467331 
z"/>
<path fill="#C48601" opacity="1.000000" stroke="none" 
	d="
M164.366455,118.754257 
	C160.972031,118.656349 158.433243,116.076637 155.158966,114.325684 
	C154.923828,113.648178 154.706360,113.407082 154.066193,113.232018 
	C153.802475,113.163940 153.878433,113.197426 153.856445,113.232628 
	C145.694183,106.475853 136.362350,101.377045 127.935532,94.961586 
	C120.830124,89.552109 113.617447,84.271355 106.550430,78.804298 
	C104.604294,77.298767 102.377838,76.012642 101.339859,73.142769 
	C101.278618,72.495010 101.296356,72.229637 101.449997,71.582840 
	C105.369049,66.606529 110.644562,66.534950 116.328949,66.488419 
	C117.816643,66.503883 118.877151,66.601624 120.162865,67.366531 
	C131.352997,79.057663 141.599014,91.106491 152.334381,102.704689 
	C155.764709,106.410706 158.175888,110.778549 161.733887,114.755768 
	C162.708389,116.163849 163.436356,117.317383 164.366455,118.754257 
z"/>
<path fill="#CA1C4A" opacity="1.000000" stroke="none" 
	d="
M456.124298,137.159897 
	C450.630005,143.805023 446.611420,150.652832 445.906311,159.209534 
	C445.498108,164.162720 441.262268,161.739090 438.764343,161.859909 
	C435.477325,162.018906 436.819946,159.058136 437.301788,157.819260 
	C441.114502,148.016022 435.790558,139.726746 433.268768,130.943954 
	C432.863403,129.532181 430.570374,126.962540 433.285553,126.477386 
	C435.852112,126.018784 439.795715,124.087242 441.430603,128.479034 
	C442.579102,131.564285 443.419952,134.764053 444.549591,138.400070 
	C447.849213,135.947723 449.649109,132.737473 451.268005,129.681473 
	C453.809296,124.884254 457.933838,126.140503 461.732361,126.282539 
	C463.795898,126.359688 462.807434,127.858513 462.171234,128.767090 
	C460.262238,131.493469 458.280975,134.169250 456.124298,137.159897 
z"/>
<path fill="#F2A500" opacity="1.000000" stroke="none" 
	d="
M265.725037,78.459160 
	C272.492554,78.427017 278.820984,78.369499 285.147369,78.456764 
	C286.535736,78.475914 289.151337,77.622543 288.348969,80.578270 
	C287.801239,82.595917 289.168427,86.610603 285.046722,85.951149 
	C279.373230,85.043419 278.549988,88.254158 277.935852,92.572517 
	C277.164276,97.998009 275.766144,103.334167 274.988220,108.759041 
	C274.222168,114.100990 270.225525,111.949913 267.639557,111.848503 
	C264.413483,111.721985 266.473785,109.129539 266.707611,107.711525 
	C267.735382,101.479370 268.921082,95.272095 270.134552,89.072433 
	C270.513153,87.138161 270.492462,85.966843 267.935089,85.986404 
	C266.305084,85.998886 263.671448,87.134476 263.157501,85.043716 
	C262.622131,82.865891 262.908203,80.124588 265.725037,78.459160 
z"/>
<path fill="#009676" opacity="1.000000" stroke="none" 
	d="
M78.704147,77.143715 
	C80.099815,78.067802 79.395882,79.183960 79.050949,80.242485 
	C73.284775,97.937790 67.504082,115.628372 61.702969,133.312241 
	C61.447727,134.090317 60.966831,134.794357 60.340385,135.779816 
	C57.247002,136.311356 56.427971,134.255661 55.886421,132.161407 
	C54.203049,125.651527 54.068031,119.186996 56.963432,112.452347 
	C63.570465,100.074425 71.224495,88.827957 78.704147,77.143715 
z"/>
<path fill="#966600" opacity="1.000000" stroke="none" 
	d="
M161.966797,114.648026 
	C156.037491,111.991486 152.842239,106.126144 148.420944,101.579773 
	C139.674774,92.586212 131.548996,82.988274 123.202301,73.608536 
	C122.111351,72.382561 121.230110,70.969978 120.106201,69.339539 
	C122.000984,66.335701 124.651505,67.058624 127.219009,67.849060 
	C133.396515,69.750862 138.930817,72.626534 142.689453,78.721405 
	C149.839264,90.480698 155.793747,102.438370 161.966797,114.648026 
z"/>
<path fill="#7B112D" opacity="1.000000" stroke="none" 
	d="
M89.354904,168.080231 
	C89.039238,167.744507 89.059296,167.495361 89.165894,167.450134 
	C97.845360,163.766556 107.114311,162.192047 116.338226,161.533554 
	C118.534096,161.376801 119.646774,160.220001 121.347794,159.855453 
	C129.897095,158.023331 138.359177,155.772629 147.530701,154.954895 
	C149.937820,157.834213 147.747437,159.584808 146.026581,161.185837 
	C141.382584,165.506424 136.043488,168.574387 129.271866,169.544128 
	C115.868973,169.238861 102.799995,168.750412 89.354904,168.080231 
z"/>
<path fill="#00735A" opacity="1.000000" stroke="none" 
	d="
M56.741352,112.177277 
	C57.018475,116.390305 56.969429,120.771530 56.994328,125.152336 
	C57.015091,128.804749 57.560101,132.349899 59.804604,135.783752 
	C60.127853,137.067352 60.165974,138.107971 60.241108,139.538269 
	C60.823574,145.573212 58.885056,150.449966 55.256779,155.061462 
	C44.379398,144.889587 42.926346,133.885925 50.490623,121.540466 
	C52.397984,118.427513 54.457573,115.407837 56.741352,112.177277 
z"/>
<path fill="#734E00" opacity="1.000000" stroke="none" 
	d="
M142.934647,78.656853 
	C137.702484,76.325378 133.530457,71.799667 127.591499,70.157402 
	C125.328224,69.531555 123.160774,68.870567 120.384171,69.013992 
	C119.211174,68.681671 118.461678,68.328079 117.412598,67.889801 
	C112.670578,64.784088 108.198502,61.786709 107.727478,55.477882 
	C118.826019,51.402153 129.865692,55.227913 135.897934,65.137711 
	C138.477310,69.375107 140.580292,73.902473 142.934647,78.656853 
z"/>
<path fill="#7B112D" opacity="1.000000" stroke="none" 
	d="
M150.201828,154.249847 
	C152.364273,149.039703 154.775299,144.175766 155.203247,138.564697 
	C155.370773,136.368332 157.366165,135.114944 159.121552,134.400497 
	C164.013382,132.409531 169.048248,130.769913 174.392929,128.958374 
	C172.224213,136.046997 169.689194,143.168823 166.984894,150.614182 
	C161.635025,153.327698 156.482559,155.843674 150.201828,154.249847 
z"/>
<path fill="#5E0D23" opacity="1.000000" stroke="none" 
	d="
M149.670288,154.044800 
	C155.320740,153.188766 160.463364,151.036896 166.401947,150.950104 
	C166.701004,153.080261 165.549896,154.837143 164.455032,156.959122 
	C164.037247,157.163559 163.837540,157.104980 163.398773,156.913422 
	C163.011673,156.880753 162.705078,156.083191 162.837570,157.089050 
	C163.082626,157.484543 163.167648,157.656586 163.328415,158.106354 
	C160.084686,165.461121 154.258392,169.225204 146.733673,169.903442 
	C141.158539,170.405975 135.495667,169.935455 129.404907,169.812866 
	C132.989273,165.809235 138.958923,165.033783 143.019669,161.056015 
	C144.765640,159.345718 146.988342,158.118225 147.911057,155.297760 
	C148.447952,154.692093 148.935944,154.430939 149.670288,154.044800 
z"/>
<path fill="#966600" opacity="1.000000" stroke="none" 
	d="
M107.536278,55.151146 
	C110.070290,59.831383 114.752205,62.560581 117.020096,67.486618 
	C112.240662,68.694687 107.225739,69.048042 102.493881,71.787514 
	C100.707863,72.264893 99.341057,71.699448 97.576653,71.317673 
	C93.896805,69.661926 91.086670,67.321877 88.198662,65.125481 
	C86.492538,63.827930 84.860764,62.283405 85.780128,59.425663 
	C92.890167,56.928638 100.052391,56.260426 107.536278,55.151146 
z"/>
<path fill="#009676" opacity="1.000000" stroke="none" 
	d="
M55.024048,155.496033 
	C55.880329,150.076553 57.556904,145.171112 59.987221,140.172272 
	C64.201469,143.187027 66.539352,147.946671 71.135246,150.712967 
	C73.068001,151.876312 71.925293,155.053024 71.667381,157.345963 
	C71.110916,162.293243 70.551117,167.240143 69.974854,172.628433 
	C65.029205,167.310196 60.101376,161.550751 55.024048,155.496033 
z"/>
<path fill="#C38501" opacity="1.000000" stroke="none" 
	d="
M85.596375,59.114548 
	C88.003624,64.714043 94.192825,65.650757 97.829605,69.906258 
	C99.092262,71.028130 99.893295,72.051903 100.311386,73.784630 
	C100.709465,75.869461 100.306076,77.372864 98.897629,78.942337 
	C96.950500,80.100357 95.759979,78.929169 94.518715,78.222290 
	C86.642212,73.736717 78.845894,69.113441 71.060173,64.472366 
	C70.306824,64.023300 69.812912,63.418327 69.787415,62.184799 
	C74.899879,60.426918 80.015594,59.646923 85.596375,59.114548 
z"/>
<path fill="#AA5E72" opacity="1.000000" stroke="none" 
	d="
M179.246918,116.513832 
	C169.548355,120.701912 160.883255,126.216827 151.163818,131.103210 
	C149.667175,131.443497 148.848358,131.274384 148.079102,130.267181 
	C153.821793,126.489738 159.699814,123.008003 165.807709,119.269325 
	C170.861389,116.394257 175.685181,113.776138 180.606506,111.105080 
	C181.493912,113.289581 180.105438,114.697502 179.246918,116.513832 
z"/>
<path fill="#4FC1A8" opacity="1.000000" stroke="none" 
	d="
M78.050385,182.744507 
	C79.950760,172.320419 78.555130,162.075836 79.044159,151.427917 
	C78.824448,150.507324 78.898552,150.097977 79.498428,149.548157 
	C80.244904,149.278641 80.692368,149.299744 81.391922,149.661316 
	C81.771217,155.623627 81.892982,161.361038 82.102524,167.562469 
	C82.190292,174.045929 82.190292,180.065384 82.190292,186.552322 
	C79.751122,185.774017 79.054176,184.274994 78.050385,182.744507 
z"/>
<path fill="#BA974E" opacity="1.000000" stroke="none" 
	d="
M69.605026,61.774487 
	C79.020134,67.448799 88.144760,73.068817 97.583557,78.814484 
	C98.056755,79.083321 98.215775,79.226494 98.453308,79.680893 
	C98.488708,80.201698 98.445587,80.411293 98.181549,80.853737 
	C92.774734,78.189873 87.588837,75.293152 81.982407,72.267059 
	C76.347328,68.991310 71.132797,65.844933 65.225471,62.280537 
	C67.095589,62.024261 68.205063,61.872223 69.605026,61.774487 
z"/>
<path fill="#009676" opacity="1.000000" stroke="none" 
	d="
M81.398132,72.425934 
	C81.561867,72.137688 81.629898,72.075714 81.636253,72.103882 
	C81.749420,72.778564 81.856239,73.425079 81.901344,74.559990 
	C81.453896,75.055397 81.068161,75.062408 80.393127,75.061646 
	C80.480698,74.273964 80.857544,73.494072 81.398132,72.425934 
z"/>
<path fill="#7B112D" opacity="1.000000" stroke="none" 
	d="
M84.714630,166.146622 
	C85.019669,166.456757 85.020615,166.859482 85.032143,167.563980 
	C84.532211,167.938416 84.021698,168.011047 83.121735,168.071671 
	C83.291695,167.452835 83.851128,166.846008 84.714630,166.146622 
z"/>
<path fill="#5E0D23" opacity="1.000000" stroke="none" 
	d="
M164.100967,157.105988 
	C164.080154,157.500259 163.908768,157.769043 163.563477,158.206299 
	C163.404144,158.384079 163.145569,158.130768 163.019821,158.000580 
	C162.788132,157.493134 162.876511,157.168823 163.425430,156.828278 
	C163.691650,156.759079 163.964981,156.989807 164.100967,157.105988 
z"/>
<path fill="#C6760E" opacity="1.000000" stroke="none" 
	d="
M91.765335,145.686066 
	C88.740761,140.614395 90.029518,134.874161 89.756210,129.339127 
	C89.264175,119.374382 89.555275,109.367599 89.631660,99.379242 
	C89.690269,91.713448 94.935814,88.514809 101.666168,92.265160 
	C113.274040,98.733414 124.733879,105.467857 136.240509,112.117134 
	C145.222733,117.307655 145.157745,122.656105 135.747330,128.043762 
	C134.290085,128.321625 133.452774,129.100128 132.238556,129.851990 
	C131.993774,130.077576 132.005188,130.008667 132.039307,130.016113 
	C131.594589,130.410049 130.995102,130.487946 130.223114,130.872711 
	C130.011993,131.080826 130.015030,131.014603 130.042419,131.033264 
	C129.585556,131.416061 128.990936,131.487549 128.238602,131.883545 
	C128.039948,132.099426 128.034836,132.008331 128.053986,132.049774 
	C127.278954,132.510040 126.455124,132.798737 125.129822,132.499207 
	C121.482620,128.572372 124.087883,124.632233 124.415909,120.367020 
	C124.496140,119.711098 124.521553,119.453346 124.598740,118.820374 
	C128.057709,113.194801 127.811195,111.998993 122.468262,109.480377 
	C115.679573,105.513588 109.250366,101.582054 102.629829,97.973251 
	C100.586739,96.859573 98.606171,95.661537 95.896523,96.994843 
	C93.508995,99.136925 92.647537,101.712357 92.659492,104.363396 
	C92.701126,113.596519 91.806427,122.836388 93.324219,132.072021 
	C93.828789,135.142242 94.418419,137.420715 97.640778,138.368942 
	C98.401581,138.592834 98.835815,139.472855 99.364960,140.557343 
	C99.927475,143.282852 98.467194,144.058228 96.516220,144.400925 
	C95.114830,144.647110 93.569221,144.280380 91.765335,145.686066 
z"/>
<path fill="#FBAD05" opacity="1.000000" stroke="none" 
	d="
M98.223221,79.970612 
	C98.062752,79.650391 98.000664,79.291237 97.949196,79.115692 
	C98.310150,77.576370 98.722565,76.212608 99.181778,74.494019 
	C99.561935,73.065010 100.368149,72.676285 101.740715,72.779785 
	C118.199593,84.965866 134.342896,96.988045 150.436600,109.076248 
	C151.714401,110.036018 153.338104,110.787933 153.841675,112.911522 
	C144.113464,108.398453 134.826385,102.771339 125.217300,96.984467 
	C124.481216,96.211006 124.036263,95.601685 123.008003,95.253616 
	C122.723587,95.221443 122.841782,95.162750 122.864563,95.224670 
	C122.347000,94.174637 121.230080,94.145676 119.930496,93.823639 
	C119.620468,93.769814 119.365402,93.777328 119.365402,93.777328 
	C119.365402,93.777328 119.159401,93.626740 119.113251,93.507797 
	C118.873352,93.012054 118.632683,92.668694 118.025024,92.314491 
	C117.712700,92.264725 117.767036,92.406876 117.695465,92.432693 
	C116.916779,90.512001 114.747719,90.804565 113.184311,89.565727 
	C111.660469,88.057243 109.973312,87.492775 108.055328,86.688049 
	C107.737572,86.598633 107.543961,86.672974 107.483513,86.588715 
	C105.013313,83.555481 100.988968,82.955353 98.223221,79.970612 
z"/>
<path fill="#CF1F4E" opacity="1.000000" stroke="none" 
	d="
M151.124924,131.176682 
	C154.849655,136.038254 154.814560,136.852921 149.996964,138.926819 
	C131.340500,146.958115 112.641594,154.890961 93.940125,162.817139 
	C92.908447,163.254379 91.711021,163.300537 90.342758,163.339508 
	C95.924080,159.927811 101.753387,156.705338 107.839737,153.251648 
	C108.464409,152.507507 109.078957,152.518402 109.804764,152.126129 
	C110.016869,151.936935 110.004745,152.005981 109.970245,151.999847 
	C110.405334,151.586655 111.009560,151.512543 111.786057,151.126801 
	C112.001175,150.921127 111.992119,150.987503 111.960480,150.976501 
	C114.440277,149.733383 116.953972,148.506012 119.716248,147.084946 
	C119.922363,146.801727 119.922089,146.895325 119.875519,146.890762 
	C120.156082,146.769226 120.435867,146.581604 120.811272,146.109955 
	C120.954231,145.896530 120.987610,145.979385 120.954193,145.949753 
	C129.151459,142.189651 136.680481,137.152710 144.750595,133.124741 
	C146.509354,132.246902 148.203323,131.197754 150.541687,130.861420 
	C150.906265,130.904709 151.043365,131.093353 151.124924,131.176682 
z"/>
<path fill="#D97590" opacity="1.000000" stroke="none" 
	d="
M150.670319,130.689346 
	C141.343414,136.334778 131.911728,142.016693 121.293274,146.027725 
	C129.222473,139.858902 138.564545,135.538315 147.610977,130.068878 
	C148.773987,130.138992 149.604172,130.306488 150.670319,130.689346 
z"/>
<path fill="#72FFE0" opacity="1.000000" stroke="none" 
	d="
M81.725937,149.430969 
	C81.245285,149.897461 80.841125,149.908691 80.132477,149.936768 
	C78.323112,148.892227 77.952950,147.325836 77.893806,145.618256 
	C77.477112,133.587021 77.878441,121.571907 78.607681,109.563484 
	C78.659691,108.706963 79.114426,108.011147 80.001434,107.084549 
	C82.690796,109.191948 81.155884,112.080666 81.436363,114.702156 
	C81.734695,117.490570 81.461525,120.332626 81.644638,123.606018 
	C81.771080,132.366028 81.786743,140.670868 81.725937,149.430969 
z"/>
<path fill="#F8C96F" opacity="1.000000" stroke="none" 
	d="
M121.528442,134.536011 
	C118.428864,139.294464 112.987984,140.744598 108.272766,143.915955 
	C106.697372,144.753784 105.306343,144.859116 103.508514,144.866730 
	C102.296600,144.362350 101.820152,143.704575 101.596603,142.432358 
	C107.166893,137.201324 113.448555,134.094696 121.528442,134.536011 
z"/>
<path fill="#4FC1A8" opacity="1.000000" stroke="none" 
	d="
M81.865616,123.599678 
	C80.140030,118.815979 81.326660,113.428940 80.967621,107.667786 
	C78.794563,105.441727 79.406876,102.950012 79.589821,100.750221 
	C80.081802,94.834831 80.470238,88.920181 80.811127,82.554359 
	C81.190674,81.887466 81.344757,81.664406 81.670647,81.324112 
	C81.875076,95.175804 81.925453,109.156990 81.865616,123.599678 
z"/>
<path fill="#DBB97C" opacity="1.000000" stroke="none" 
	d="
M102.563293,143.841995 
	C104.306496,143.961624 105.699074,143.964233 107.508530,143.975922 
	C105.148499,145.640137 102.393959,147.334427 99.587425,148.937683 
	C97.462502,150.151581 95.303230,150.454987 93.139633,148.036575 
	C95.336311,144.277145 98.689514,143.787231 102.563293,143.841995 
z"/>
<path fill="#EBBE5C" opacity="1.000000" stroke="none" 
	d="
M98.020233,80.008232 
	C101.457932,81.349319 104.988792,82.838577 107.494911,86.152435 
	C104.410866,84.873764 101.398659,83.243065 98.173553,81.349480 
	C97.966331,80.846420 97.972023,80.606247 98.020233,80.008232 
z"/>
<path fill="#D97590" opacity="1.000000" stroke="none" 
	d="
M119.576324,146.627747 
	C118.277229,149.530045 115.437881,150.218491 112.303452,151.004120 
	C113.988884,148.856705 116.763771,147.904755 119.576324,146.627747 
z"/>
<path fill="#D7AB50" opacity="1.000000" stroke="none" 
	d="
M112.930466,88.725029 
	C115.007179,89.521523 116.704391,90.052261 117.612015,92.124176 
	C115.819641,91.522614 114.015388,90.586723 112.016144,89.373291 
	C112.056747,88.895149 112.292343,88.694557 112.930466,88.725029 
z"/>
<path fill="#EBBE5C" opacity="1.000000" stroke="none" 
	d="
M113.085632,88.685349 
	C113.080711,88.976212 112.828423,88.996323 112.198639,89.056091 
	C110.565033,88.432594 109.308914,87.769440 107.895187,86.852463 
	C109.995796,85.636665 111.279999,87.410515 113.085632,88.685349 
z"/>
<path fill="#BA974E" opacity="1.000000" stroke="none" 
	d="
M124.862587,131.852676 
	C125.916573,131.996384 126.640945,131.963013 127.719223,132.010437 
	C127.461174,133.548523 126.167412,133.853836 124.217804,133.768341 
	C123.492271,132.679214 123.767044,132.057419 124.862587,131.852676 
z"/>
<path fill="#EBBE5C" opacity="1.000000" stroke="none" 
	d="
M119.932205,93.969658 
	C121.030273,92.805298 121.929642,93.571960 122.807022,94.986130 
	C122.006210,94.914238 121.125084,94.541870 119.932205,93.969658 
z"/>
<path fill="#BA974E" opacity="1.000000" stroke="none" 
	d="
M132.328217,130.028137 
	C132.478790,128.844025 133.497971,128.365799 135.061386,128.124527 
	C134.497192,128.720337 133.579926,129.349518 132.328217,130.028137 
z"/>
<path fill="#EBBE5C" opacity="1.000000" stroke="none" 
	d="
M122.826859,95.494141 
	C123.659073,95.059570 124.398628,95.276489 124.800461,96.574051 
	C124.217628,96.511566 123.573883,96.139198 122.826859,95.494141 
z"/>
<path fill="#C6760E" opacity="1.000000" stroke="none" 
	d="
M92.986794,148.116333 
	C91.977303,147.923218 91.522034,147.319992 91.184311,146.274200 
	C91.157463,145.984390 91.296822,145.849350 91.372604,145.788773 
	C92.508926,145.756363 93.135521,146.340698 93.437119,147.647980 
	C93.407234,147.992737 93.137756,148.132797 92.986794,148.116333 
z"/>
<path fill="#F8C96F" opacity="1.000000" stroke="none" 
	d="
M123.985962,134.008942 
	C123.890694,134.766022 123.418053,135.071671 122.399643,135.065552 
	C122.087639,135.100342 121.901268,134.837692 121.809189,134.705597 
	C121.922569,133.890457 122.402275,133.554108 123.394623,133.585785 
	C123.695930,133.686646 123.860672,133.931229 123.985962,134.008942 
z"/>
<path fill="#BA974E" opacity="1.000000" stroke="none" 
	d="
M128.358139,132.136108 
	C128.504379,131.740372 128.968811,131.381332 129.751526,131.037109 
	C129.605331,131.425537 129.140823,131.799164 128.358139,132.136108 
z"/>
<path fill="#BA974E" opacity="1.000000" stroke="none" 
	d="
M130.324234,131.085693 
	C130.489609,130.737671 130.967209,130.394501 131.759125,130.037445 
	C131.594437,130.379227 131.115448,130.734879 130.324234,131.085693 
z"/>
<path fill="#D97590" opacity="1.000000" stroke="none" 
	d="
M111.692764,150.929321 
	C111.820381,151.665375 111.246513,151.883621 110.259125,151.987488 
	C110.418617,151.641647 110.901489,151.289581 111.692764,150.929321 
z"/>
<path fill="#D97590" opacity="1.000000" stroke="none" 
	d="
M109.697037,151.956985 
	C109.580002,152.281509 109.143127,152.626083 108.401512,152.995544 
	C108.118629,152.175705 108.713997,152.034744 109.697037,151.956985 
z"/>
<path fill="#FBAD05" opacity="1.000000" stroke="none" 
	d="
M153.892807,113.412682 
	C154.299408,113.168335 154.960953,112.747948 155.030365,113.856064 
	C154.632797,113.916611 154.307968,113.789017 153.892807,113.412682 
z"/>
<path fill="#D97590" opacity="1.000000" stroke="none" 
	d="
M120.614586,145.885925 
	C120.776711,146.212357 120.599197,146.528198 120.125320,146.865112 
	C119.977608,146.549240 120.126274,146.212296 120.614586,145.885925 
z"/>
<path fill="#D7AB50" opacity="1.000000" stroke="none" 
	d="
M117.807663,92.570633 
	C118.083763,92.442955 118.454834,92.621193 118.946503,93.094131 
	C118.678940,93.218079 118.290779,93.047310 117.807663,92.570633 
z"/>
<path fill="#060202" opacity="1.000000" stroke="none" 
	d="
M333.859497,154.083618 
	C330.105438,154.523972 328.456635,153.865280 329.653107,149.852814 
	C330.835632,145.887192 331.459808,141.721924 331.969696,137.599808 
	C332.350098,134.524216 333.863007,133.725372 336.661652,134.052505 
	C340.737000,134.528839 344.253143,135.819901 345.368805,140.234238 
	C346.545746,144.891006 344.996704,148.789993 341.276428,151.743378 
	C339.271149,153.335297 336.873749,154.061157 333.859497,154.083618 
z"/>
<path fill="#03FDC6" opacity="1.000000" stroke="none" 
	d="
M80.804733,82.424789 
	C81.028343,90.157784 81.002335,98.192757 80.981537,106.721092 
	C79.490410,114.948280 80.360191,122.779976 80.057411,130.562714 
	C79.818245,136.710419 79.881927,142.869919 79.819550,149.488892 
	C79.605148,150.138794 79.412712,150.351456 79.136459,150.774261 
	C72.784462,150.986893 72.623589,150.861572 73.036980,144.580078 
	C73.274925,140.964584 74.368721,137.423157 73.978195,133.293396 
	C73.859047,132.685120 73.776497,132.534180 73.856445,132.182770 
	C76.281219,122.609451 76.673561,112.975784 77.975792,103.469261 
	C78.921303,96.566841 79.701317,89.641754 80.804733,82.424789 
z"/>
<path fill="#4FC1A8" opacity="1.000000" stroke="none" 
	d="
M73.936890,131.674194 
	C74.018951,131.982300 73.982224,132.410599 73.961914,132.623337 
	C72.483986,133.686691 70.973801,134.648102 69.697525,132.653198 
	C69.037781,131.621994 69.659393,130.689972 70.476227,130.103409 
	C72.134209,128.912796 73.204269,129.666748 73.936890,131.674194 
z"/>
<path fill="#190309" opacity="1.000000" stroke="none" 
	d="
M415.347168,144.335785 
	C415.780304,146.126724 415.903015,147.539490 413.947876,147.603989 
	C411.991882,147.668503 409.751587,147.972305 408.152313,147.157578 
	C406.899414,146.519348 408.482239,144.838867 409.044006,143.747147 
	C410.312683,141.281555 411.736145,138.895630 413.312469,136.093689 
	C414.953491,138.843369 414.836792,141.464493 415.347168,144.335785 
z"/>
<path fill="#D7AB50" opacity="1.000000" stroke="none" 
	d="
M102.081207,72.683960 
	C101.318016,73.278038 100.567078,73.629250 99.522346,74.059837 
	C98.145172,73.310005 97.887878,72.170662 98.026611,70.530228 
	C99.521004,69.875854 100.777824,70.232857 101.972519,71.692024 
	C102.189621,71.964386 102.093460,72.441109 102.081207,72.683960 
z"/>
<path fill="#8D5362" opacity="1.000000" stroke="none" 
	d="
M163.702362,156.413300 
	C163.457642,156.961624 163.261795,157.196045 162.999100,157.666382 
	C160.891678,158.147308 158.784210,158.482605 158.285187,155.730576 
	C158.054474,154.458282 158.884079,153.489014 160.124115,153.220474 
	C162.383408,152.731262 163.488266,153.891922 163.702362,156.413300 
z"/>
<path fill="#4FC1A8" opacity="1.000000" stroke="none" 
	d="
M64.000214,153.027985 
	C65.241081,155.519196 64.379532,156.701813 62.060238,156.810501 
	C60.982693,156.860992 60.159149,156.085327 60.223202,154.996033 
	C60.355789,152.741272 61.473843,151.757629 64.000214,153.027985 
z"/>
<path fill="#FFD16E" opacity="1.000000" stroke="none" 
	d="
M126.344421,117.772850 
	C126.132332,118.125381 126.044182,118.521217 125.992607,118.717308 
	C120.694122,124.306274 115.114418,129.183624 107.080490,130.762756 
	C99.320274,128.677048 94.860596,123.612640 92.075226,116.335991 
	C92.108017,110.348534 91.694656,104.771317 92.456924,99.206291 
	C92.708992,97.366058 92.875694,95.624115 94.882210,94.223091 
	C98.892632,93.559990 101.986366,94.653740 105.001328,96.676239 
	C110.708702,100.504860 117.441460,102.733940 122.669571,107.963509 
	C125.981468,110.530594 127.878273,113.350914 126.344421,117.772850 
z"/>
<path fill="#FEAF04" opacity="1.000000" stroke="none" 
	d="
M106.556046,129.724335 
	C113.645721,127.283005 118.490181,121.537292 125.596939,118.999771 
	C126.652054,123.069687 125.376755,127.088806 125.143204,131.603119 
	C124.817513,132.451584 124.442825,132.873413 123.882034,133.490952 
	C123.180634,133.874466 122.665337,134.062286 121.933578,134.411804 
	C115.431770,137.103928 109.146439,139.634338 102.516388,142.302032 
	C101.467964,142.952423 100.693481,143.025192 99.524368,142.602478 
	C90.876320,138.337341 91.305832,130.691299 91.407028,123.256180 
	C91.519821,114.968651 90.892677,106.664558 91.948639,98.393982 
	C92.183235,96.556519 92.133141,94.653023 94.879257,94.065353 
	C92.707153,96.886192 93.075020,100.396133 93.086830,103.835518 
	C93.100914,107.936569 93.080811,112.037743 93.146957,116.607147 
	C95.738434,121.407021 94.797005,126.315765 95.660553,131.258789 
	C96.240097,132.162338 96.505859,132.960739 97.714401,132.950180 
	C100.904732,132.242462 102.998528,129.531281 106.556046,129.724335 
z"/>
<path fill="#D7AB50" opacity="1.000000" stroke="none" 
	d="
M98.852936,142.540985 
	C99.926758,142.358246 100.677315,142.320404 101.799759,142.360931 
	C102.381416,142.808105 102.591164,143.176910 102.857407,143.752365 
	C99.959221,145.257843 97.004532,146.556671 93.728539,147.924118 
	C92.885071,147.386902 92.362907,146.781082 91.644562,145.951721 
	C90.622520,142.263290 91.044594,140.385468 95.182587,142.501266 
	C96.091995,142.966232 97.403381,142.645035 98.852936,142.540985 
z"/>
<path fill="#DDB868" opacity="1.000000" stroke="none" 
	d="
M126.461182,117.992249 
	C125.124100,115.035820 124.115875,111.946251 123.032768,108.502121 
	C129.493286,110.111115 130.636185,113.007462 126.461182,117.992249 
z"/>
<path fill="#FFDC90" opacity="1.000000" stroke="none" 
	d="
M94.477089,134.154663 
	C91.876846,128.744263 93.616089,123.291344 93.178467,117.534401 
	C93.528549,117.186989 94.025909,117.213066 94.121552,117.422554 
	C96.703438,123.077583 101.459000,126.377876 106.811859,129.455185 
	C104.382599,131.813477 101.579697,133.382584 98.274139,134.729889 
	C96.808258,135.040070 95.724655,134.988205 94.477089,134.154663 
z"/>
<path fill="#FFD16E" opacity="1.000000" stroke="none" 
	d="
M94.351807,134.191162 
	C95.301804,134.077042 96.352615,134.244431 97.666092,134.592468 
	C96.646721,136.099854 95.516235,135.673050 94.351807,134.191162 
z"/>
</svg>